<?xml version="1.0" standalone="no"?><!DOCTYPE svg PUBLIC "-//W3C//DTD SVG 1.1//EN" "http://www.w3.org/Graphics/SVG/1.1/DTD/svg11.dtd"><svg t="1594109728333" class="icon" viewBox="0 0 1024 1024" version="1.1" xmlns="http://www.w3.org/2000/svg" p-id="55586" xmlns:xlink="http://www.w3.org/1999/xlink" width="200" height="200"><defs><style type="text/css"></style></defs><path d="M971.08 361.58L725.64 116.14c-11.3-11.3-26.34-17.52-42.32-17.52-16 0-31.02 6.22-42.32 17.52-18.76 18.76-22.44 46.94-11.06 69.42l-175.74 28.48c-4.62 0.74-9.06 2.06-13.28 3.82l-53.16-15.96c8.08-10.84 12.28-23.96 11.94-37.68-0.4-16.2-7.1-31.26-18.84-42.44a60.41 60.41 0 0 0-41.78-16.7c-16.8 0-32.4 6.7-43.96 18.86L52.08 379.46c-11.16 11.72-17.08 27.12-16.68 43.32 0.4 16.2 7.1 31.26 18.82 42.42 11.34 10.78 26.18 16.72 41.8 16.72 8.54 0 16.76-1.74 24.3-5.04-3.68 25.62 4.64 52.56 24.74 71.7l30.84 29.72-14.38 14.38c-0.02 0.02-0.02 0.02-0.02 0.04-11.9 11.9-18.44 27.72-18.44 44.56 0 16.84 6.56 32.66 18.46 44.56 12.28 12.3 28.44 18.44 44.58 18.44 4.5 0 9-0.48 13.42-1.44-0.94 4.36-1.44 8.88-1.44 13.46 0 16.84 6.56 32.68 18.46 44.58 11.9 11.9 27.74 18.46 44.58 18.46 4.58 0 9.06-0.5 13.42-1.44-0.94 4.36-1.44 8.86-1.44 13.42 0 16.84 6.56 32.68 18.46 44.58 12.3 12.3 28.44 18.44 44.58 18.44 4.52 0 9.02-0.5 13.44-1.46-0.94 4.38-1.46 8.88-1.46 13.46 0 16.84 6.56 32.68 18.48 44.58 12.28 12.3 28.42 18.44 44.58 18.44 16.14 0 32.28-6.14 44.56-18.42l0.02-0.02 18.56-18.56 12.82 12.18 0.04 0.04 1.28 1.22c0.14 0.14 0.32 0.22 0.46 0.36a65.9 65.9 0 0 0 43.74 16.54c17.46 0 34.9-6.86 47.88-20.48 13.64-14.34 19.54-33.26 17.88-51.58a66 66 0 0 0 27.38 5.94c17.48 0 34.92-6.88 47.88-20.5 13.46-14.16 19.4-32.76 17.94-50.86a69.47 69.47 0 0 0 30.46 7.02c17.52 0 34.88-6.62 47.4-19.78 12.16-12.78 18.36-29.82 17.52-48.02-0.04-0.68-0.1-1.36-0.16-2.02a66.092 66.092 0 0 0 31.9 8.18c17.46 0 34.9-6.86 47.86-20.48 12.18-12.8 18.64-29.54 18.18-47.2-0.44-17.64-7.72-34.04-20.46-46.14l-42.1-40.74 7.82-7.82c0.02 0 0.02-0.02 0.04-0.04l33.62-33.62c19.32-19.32 26.88-46 22.72-71.08 7.02 2.82 14.56 4.3 22.34 4.3 16 0 31.02-6.24 42.34-17.54 11.3-11.3 17.52-26.34 17.52-42.32 0-16-6.22-31.04-17.54-42.34zM96.02 461.92a40.42 40.42 0 0 1-28-11.2c-7.88-7.5-12.36-17.6-12.64-28.44-0.26-10.86 3.7-21.18 11.2-29.04L309.6 137.72c7.76-8.16 18.22-12.64 29.48-12.64 10.46 0 20.4 3.98 28 11.2 7.88 7.48 12.36 17.58 12.62 28.44 0.28 10.86-3.7 21.16-11.18 29.04L125.5 449.26c-7.76 8.16-18.22 12.66-29.48 12.66z m140.5 205.8c-16.78 16.78-44.08 16.78-60.86-0.02-8.14-8.12-12.6-18.92-12.6-30.42 0-11.52 4.46-22.32 12.6-30.44 0-0.02 0-0.02 0.02-0.04l14.62-14.6 46.9 45.24 14.88 14.72-15.54 15.54c0 0.02 0 0.02-0.02 0.02z m75.04 75.02c-8.12 8.12-18.94 12.6-30.44 12.6s-22.32-4.48-30.44-12.6c-8.12-8.14-12.6-18.94-12.6-30.44s4.48-22.32 12.6-30.44c0-0.02 0.02-0.02 0.02-0.04l15.6-15.6 61.2 60.58-15.92 15.92s-0.02 0-0.02 0.02z m75.02 75.02c-16.78 16.78-44.08 16.78-60.88 0-8.12-8.12-12.6-18.94-12.6-30.44s4.48-22.32 12.6-30.44c0.02 0 0.02-0.02 0.04-0.04l15.98-15.98 61.2 60.56-16.32 16.34h-0.02z m75.04 75.02c-16.8 16.78-44.1 16.78-60.88 0-8.14-8.12-12.62-18.94-12.62-30.44s4.48-22.3 12.62-30.44l16.68-16.68 62.42 59.34-18.22 18.22zM870.48 627.2c8.92 8.48 14 19.94 14.32 32.22 0.3 12.3-4.2 23.98-12.68 32.9-17.5 18.4-46.72 19.12-65.12 1.64l-20.9-19.9c-0.1-0.08-0.18-0.16-0.28-0.26l-34.08-32.4c-4-3.8-10.32-3.64-14.12 0.36-3.82 4-3.66 10.32 0.34 14.14l33.94 32.26 0.14 0.14v0.02c8.94 8.48 14.38 20.52 14.98 33.06 0.6 12.7-3.68 24.52-12.02 33.3-17.2 18.08-47.64 18.26-66.44 0.38l-46.04-43.8c-4-3.82-10.32-3.66-14.14 0.34a10.01 10.01 0 0 0 0.36 14.14l28.82 27.42c9.5 9.06 14.3 21.22 14.3 33.42 0 11.4-4.2 22.82-12.66 31.72-17.52 18.38-46.72 19.12-65.12 1.62l-15.56-14.8c-0.12-0.1-0.2-0.22-0.32-0.32-0.02-0.02-0.06-0.04-0.08-0.06l-30.08-28.62c-4-3.8-10.34-3.64-14.14 0.36-3.8 4-3.64 10.34 0.36 14.14l30.36 28.88c18.2 17.52 18.86 46.58 1.42 64.92-17.5 18.4-46.7 19.14-65.1 1.64l-104.06-98.96-143.5-142c-0.02-0.02-0.02-0.04-0.04-0.06s-0.04-0.02-0.06-0.04l-22.1-21.86-53.92-52c0-0.02 0-0.02-0.02-0.04s-0.04-0.02-0.04-0.04l-38.3-36.94c-25.04-23.82-26.04-63.56-2.22-88.6 0.04-0.04 0.06-0.08 0.08-0.1l216.02-227.14 47.2 14.18c-6.24 6.68-11 14.78-13.66 23.82l-59.78 203.88c-4.5 15.36-2.76 31.54 4.92 45.56 7.66 14.04 20.34 24.24 35.68 28.74 5.58 1.64 11.28 2.44 16.94 2.44 9.9 0 19.7-2.48 28.62-7.36 14.04-7.66 24.24-20.34 28.72-35.62l45.18-150.04 60.84-9.86L870.48 627.2z m-0.92-110.78l-33.66 33.66-0.02 0.02-8.02 8.04-235.8-228.12 37.82-6.14a9.996 9.996 0 0 0 8.28-11.46c-0.9-5.46-6.04-9.18-11.48-8.28l-129.46 21c-3.76 0.6-6.86 3.32-7.96 6.98l-47.02 156.12c-3 10.22-9.78 18.64-19.12 23.76a39.672 39.672 0 0 1-30.36 3.26c-10.22-2.98-18.66-9.78-23.76-19.12s-6.26-20.12-3.26-30.34l59.78-203.88c4.3-14.64 16.82-25.7 31.88-28.14l186.36-30.2 225.78 225.76c0 0.02 0.02 0.04 0.04 0.06 23.98 23.98 23.98 63.02-0.02 87.02z m87.4-84.32c-7.54 7.52-17.54 11.68-28.2 11.68-10.64 0-20.66-4.16-28.18-11.68L655.14 186.66c-15.56-15.54-15.56-40.82 0-56.38 7.52-7.52 17.52-11.66 28.18-11.66 10.64 0 20.66 4.14 28.18 11.68l245.44 245.42c7.54 7.54 11.68 17.54 11.68 28.2 0 10.64-4.14 20.66-11.66 28.18z" fill="#23130D" p-id="55587"></path><path d="M479.84 874.56l-18.22 18.22c-16.8 16.78-44.1 16.78-60.88 0-8.14-8.12-12.62-18.94-12.62-30.44s4.48-22.3 12.62-30.44l16.68-16.68 62.42 59.34zM402.92 801.42l-16.32 16.34h-0.02c-16.78 16.78-44.08 16.78-60.88 0-8.12-8.12-12.6-18.94-12.6-30.44s4.48-22.32 12.6-30.44c0.02 0 0.02-0.02 0.04-0.04l15.98-15.98 61.2 60.56zM327.5 726.8l-15.92 15.92s-0.02 0-0.02 0.02c-8.12 8.12-18.94 12.6-30.44 12.6s-22.32-4.48-30.44-12.6c-8.12-8.14-12.6-18.94-12.6-30.44s4.48-22.32 12.6-30.44c0-0.02 0.02-0.02 0.02-0.04l15.6-15.6 61.2 60.58zM252.08 652.16l-15.54 15.54c0 0.02 0 0.02-0.02 0.02-16.78 16.78-44.08 16.78-60.86-0.02-8.14-8.12-12.6-18.92-12.6-30.42 0-11.52 4.46-22.32 12.6-30.44 0-0.02 0-0.02 0.02-0.04l14.62-14.6 46.9 45.24 14.88 14.72z" fill="#CC7B5A" p-id="55588"></path><path d="M479.84 874.56l-18.22 18.22c-16.8 16.78-44.1 16.78-60.88 0-8.14-8.12-12.62-18.94-12.62-30.44s4.48-22.3 12.62-30.44l16.68-16.68 62.42 59.34zM402.92 801.42l-16.32 16.34h-0.02c-16.78 16.78-44.08 16.78-60.88 0-8.12-8.12-12.6-18.94-12.6-30.44s4.48-22.32 12.6-30.44c0.02 0 0.02-0.02 0.04-0.04l15.98-15.98 61.2 60.56zM327.5 726.8l-15.92 15.92s-0.02 0-0.02 0.02c-8.12 8.12-18.94 12.6-30.44 12.6s-22.32-4.48-30.44-12.6c-8.12-8.14-12.6-18.94-12.6-30.44s4.48-22.32 12.6-30.44c0-0.02 0.02-0.02 0.02-0.04l15.6-15.6 61.2 60.58zM252.08 652.16l-15.54 15.54c0 0.02 0 0.02-0.02 0.02-16.78 16.78-44.08 16.78-60.86-0.02-8.14-8.12-12.6-18.92-12.6-30.42 0-11.52 4.46-22.32 12.6-30.44 0-0.02 0-0.02 0.02-0.04l14.62-14.6 46.9 45.24 14.88 14.72z" fill="#CC7B5A" p-id="55589"></path><path d="M479.84 874.56l-13.34 13.34-62.42-59.34 13.34-13.34zM402.92 801.42l-13.34 13.34-61.2-60.56 13.34-13.34zM327.5 726.8l-13.34 13.34-61.2-60.58 13.34-13.34zM252.08 652.16l-13.34 13.34-14.88-14.72-46.9-45.24 13.34-13.34 46.9 45.24z" opacity=".2" p-id="55590"></path><path d="M379.7 164.72c0.28 10.86-3.7 21.16-11.18 29.04L125.5 449.26c-7.76 8.16-18.22 12.66-29.48 12.66a40.42 40.42 0 0 1-28-11.2c-7.88-7.5-12.36-17.6-12.64-28.44-0.26-10.86 3.7-21.18 11.2-29.04L309.6 137.72c7.76-8.16 18.22-12.64 29.48-12.64 10.46 0 20.4 3.98 28 11.2 7.88 7.48 12.36 17.58 12.62 28.44z" fill="#F9C139" p-id="55591"></path><path d="M968.62 403.92c0 10.64-4.14 20.66-11.66 28.18-7.54 7.52-17.54 11.68-28.2 11.68-10.64 0-20.66-4.16-28.18-11.68L655.14 186.66c-15.56-15.54-15.56-40.82 0-56.38 7.52-7.52 17.52-11.66 28.18-11.66 10.64 0 20.66 4.14 28.18 11.68l245.44 245.42c7.54 7.54 11.68 17.54 11.68 28.2z" fill="#E1E1E5" p-id="55592"></path><path d="M869.56 516.42l-33.66 33.66-0.02 0.02-8.02 8.04-235.8-228.12 37.82-6.14a9.996 9.996 0 0 0 8.28-11.46c-0.9-5.46-6.04-9.18-11.48-8.28l-129.46 21c-3.76 0.6-6.86 3.32-7.96 6.98l-47.02 156.12c-3 10.22-9.78 18.64-19.12 23.76a39.672 39.672 0 0 1-30.36 3.26c-10.22-2.98-18.66-9.78-23.76-19.12s-6.26-20.12-3.26-30.34l59.78-203.88c4.3-14.64 16.82-25.7 31.88-28.14l186.36-30.2 225.78 225.76c0 0.02 0.02 0.04 0.04 0.06 23.98 23.98 23.98 63.02-0.02 87.02z" fill="#CC7B5A" p-id="55593"></path><path d="M845.66 540.32l-9.76 9.76-0.02 0.02-8.02 8.04-235.8-228.12 31.04-5.04 222.56 215.34z" opacity=".2" p-id="55594"></path><path d="M884.8 659.42c0.3 12.3-4.2 23.98-12.68 32.9-17.5 18.4-46.72 19.12-65.12 1.64l-20.9-19.9c-0.1-0.08-0.18-0.16-0.28-0.26l-34.08-32.4c-4-3.8-10.32-3.64-14.12 0.36-3.82 4-3.66 10.32 0.34 14.14l33.94 32.26 0.14 0.14v0.02c8.94 8.48 14.38 20.52 14.98 33.06 0.6 12.7-3.68 24.52-12.02 33.3-17.2 18.08-47.64 18.26-66.44 0.38l-46.04-43.8c-4-3.82-10.32-3.66-14.14 0.34a10.01 10.01 0 0 0 0.36 14.14l28.82 27.42c9.5 9.06 14.3 21.22 14.3 33.42 0 11.4-4.2 22.82-12.66 31.72-17.52 18.38-46.72 19.12-65.12 1.62l-15.56-14.8c-0.12-0.1-0.2-0.22-0.32-0.32-0.02-0.02-0.06-0.04-0.08-0.06l-30.08-28.62c-4-3.8-10.34-3.64-14.14 0.36-3.8 4-3.64 10.34 0.36 14.14l30.36 28.88c18.2 17.52 18.86 46.58 1.42 64.92-17.5 18.4-46.7 19.14-65.1 1.64l-104.06-98.96-143.5-142c-0.02-0.02-0.02-0.04-0.04-0.06s-0.04-0.02-0.06-0.04l-22.1-21.86-53.92-52c0-0.02 0-0.02-0.02-0.04s-0.04-0.02-0.04-0.04l-38.3-36.94c-25.04-23.82-26.04-63.56-2.22-88.6 0.04-0.04 0.06-0.08 0.08-0.1l216.02-227.14 47.2 14.18c-6.24 6.68-11 14.78-13.66 23.82l-59.78 203.88c-4.5 15.36-2.76 31.54 4.92 45.56 7.66 14.04 20.34 24.24 35.68 28.74 5.58 1.64 11.28 2.44 16.94 2.44 9.9 0 19.7-2.48 28.62-7.36 14.04-7.66 24.24-20.34 28.72-35.62l45.18-150.04 60.84-9.86L870.48 627.2c8.92 8.48 14 19.94 14.32 32.22z" fill="#F8D3C9" p-id="55595"></path><path d="M419.98 232.46a60.376 60.376 0 0 0-8.26 11.16l-19.44-5.84L176.26 464.92c-0.02 0.02-0.04 0.06-0.08 0.1-21.9 23.02-22.82 58.46-3.38 82.52l-13.9-13.42c-25.04-23.82-26.04-63.56-2.22-88.6 0.04-0.04 0.06-0.08 0.08-0.1l216.02-227.14 47.2 14.18zM586.94 353.52l-60.84 9.86-45.18 150.04c-4.48 15.28-14.68 27.96-28.72 35.62a59.496 59.496 0 0 1-28.62 7.36c-5.66 0-11.36-0.8-16.94-2.44-14.32-4.2-26.3-13.36-34.06-25.98 4.5 2.78 9.38 4.96 14.56 6.48 5.58 1.64 11.28 2.44 16.94 2.44 9.9 0 19.7-2.48 28.62-7.36 14.04-7.66 24.24-20.34 28.72-35.62l45.18-150.04 60.84-9.86M339.08 135.08c7.878 0 15.376 3 21.116 8.452a30.352 30.352 0 0 1 9.508 21.446 30.466 30.466 0 0 1-8.43 21.89l-243.02 255.5c-5.858 6.16-13.754 9.552-22.234 9.552a30.472 30.472 0 0 1-21.106-8.444 30.52 30.52 0 0 1-9.538-21.436c-0.196-8.212 2.8-15.988 8.448-21.91l243.02-255.52c5.848-6.146 13.744-9.53 22.236-9.53m0-10c-11.26 0-21.72 4.48-29.48 12.64L66.58 393.24c-7.5 7.86-11.46 18.18-11.2 29.04 0.28 10.84 4.76 20.94 12.64 28.44a40.42 40.42 0 0 0 28 11.2c11.26 0 21.72-4.5 29.48-12.66L368.52 193.76c7.48-7.88 11.46-18.18 11.18-29.04a40.274 40.274 0 0 0-12.62-28.44c-7.6-7.22-17.54-11.2-28-11.2z" opacity=".2" p-id="55596"></path><path d="M333.446 125.508a40.03 40.03 0 0 0-14.542 4.916c1.342 0.52 2.796 0.816 4.324 0.816a11.98 11.98 0 0 0 10.218-5.732zM306.418 144.844c0-1.142-0.17-2.24-0.468-3.286l-14.236 14.97c0.87 0.2 1.772 0.318 2.704 0.318a12.004 12.004 0 0 0 12-12.002z" opacity=".1" p-id="55597"></path><path d="M348.83 144.844m-12 0a12 12 0 1 0 24 0 12 12 0 1 0-24 0Z" opacity=".1" p-id="55598"></path><path d="M277.558 171.41l-10.39 10.924a11.988 11.988 0 0 0 10.39-10.924z" opacity=".1" p-id="55599"></path><path d="M320.02 170.448m-12 0a12 12 0 1 0 24 0 12 12 0 1 0-24 0Z" opacity=".1" p-id="55600"></path><path d="M362.434 170.448a12 12 0 0 0 12 12c0.586 0 1.158-0.056 1.72-0.138a40.35 40.35 0 0 0 3.544-17.59 41.054 41.054 0 0 0-0.51-5.29 12 12 0 0 0-16.754 11.018z" opacity=".1" p-id="55601"></path><path d="M291.21 196.05m-12 0a12 12 0 1 0 24 0 12 12 0 1 0-24 0Z" opacity=".1" p-id="55602"></path><path d="M345.624 196.05m-12 0a12 12 0 1 0 24 0 12 12 0 1 0-24 0Z" opacity=".1" p-id="55603"></path><path d="M262.4 221.654m-12 0a12 12 0 1 0 24 0 12 12 0 1 0-24 0Z" opacity=".1" p-id="55604"></path><path d="M316.814 221.654m-12 0a12 12 0 1 0 24 0 12 12 0 1 0-24 0Z" opacity=".1" p-id="55605"></path><path d="M233.59 247.256m-12 0a12 12 0 1 0 24 0 12 12 0 1 0-24 0Z" opacity=".1" p-id="55606"></path><path d="M288.004 247.256m-12 0a12 12 0 1 0 24 0 12 12 0 1 0-24 0Z" opacity=".1" p-id="55607"></path><path d="M204.78 272.86m-12 0a12 12 0 1 0 24 0 12 12 0 1 0-24 0Z" opacity=".1" p-id="55608"></path><path d="M259.194 272.86m-12 0a12 12 0 1 0 24 0 12 12 0 1 0-24 0Z" opacity=".1" p-id="55609"></path><path d="M175.97 298.464m-12 0a12 12 0 1 0 24 0 12 12 0 1 0-24 0Z" opacity=".1" p-id="55610"></path><path d="M230.384 298.464m-12 0a12 12 0 1 0 24 0 12 12 0 1 0-24 0Z" opacity=".1" p-id="55611"></path><path d="M274.118 293.01l4.698-4.94a12.034 12.034 0 0 0-4.698 4.94zM147.162 336.066a12 12 0 1 0 0-24c-1.43 0-2.794 0.262-4.064 0.722l-7.418 7.8a11.996 11.996 0 0 0 11.482 15.478z" opacity=".1" p-id="55612"></path><path d="M201.574 324.066m-12 0a12 12 0 1 0 24 0 12 12 0 1 0-24 0Z" opacity=".1" p-id="55613"></path><path d="M243.988 324.066c0 0.198 0.02 0.392 0.03 0.59l11.974-12.59h-0.004a12 12 0 0 0-12 12zM118.352 361.67a11.996 11.996 0 1 0 1.03-23.948l-12.908 13.572a11.992 11.992 0 0 0 11.878 10.376z" opacity=".1" p-id="55614"></path><path d="M172.764 349.67m-12 0a12 12 0 1 0 24 0 12 12 0 1 0-24 0Z" opacity=".1" p-id="55615"></path><path d="M215.178 349.67c0 1.56 0.308 3.046 0.848 4.414l15.002-15.772a11.968 11.968 0 0 0-3.85-0.642 12 12 0 0 0-12 12zM89.542 387.274a12 12 0 0 0 4.65-23.064l-15.458 16.252a11.986 11.986 0 0 0 10.808 6.812z" opacity=".1" p-id="55616"></path><path d="M143.954 375.274m-12 0a12 12 0 1 0 24 0 12 12 0 1 0-24 0Z" opacity=".1" p-id="55617"></path><path d="M186.368 375.274c0 2.768 0.948 5.31 2.522 7.342l16.34-17.178a11.934 11.934 0 0 0-6.862-2.164 12 12 0 0 0-12 12zM72.732 400.876a11.964 11.964 0 0 0-4.508-9.364l-1.644 1.728a40.254 40.254 0 0 0-10.126 18.838 11.952 11.952 0 0 0 4.276 0.798 12 12 0 0 0 12.002-12z" opacity=".1" p-id="55618"></path><path d="M115.144 400.876m-12 0a12 12 0 1 0 24 0 12 12 0 1 0-24 0Z" opacity=".1" p-id="55619"></path><path d="M169.558 388.876a12 12 0 0 0-12 12c0 3.934 1.902 7.416 4.828 9.604l16.414-17.258a11.98 11.98 0 0 0-9.242-4.346z" opacity=".1" p-id="55620"></path><path d="M86.334 426.48m-12 0a12 12 0 1 0 24 0 12 12 0 1 0-24 0Z" opacity=".1" p-id="55621"></path><path d="M140.748 414.48a11.994 11.994 0 1 0-4.246 23.212l15.238-16.02a12 12 0 0 0-10.992-7.192zM60.18 440.388a40.792 40.792 0 0 0 7.84 10.332c0.482 0.46 1 0.868 1.502 1.3a11.996 11.996 0 0 0-9.342-11.632zM111.938 440.084a12 12 0 0 0-12 12c0 3.61 1.602 6.84 4.124 9.04 7.418-1.476 14.21-5.026 19.806-10.31a11.996 11.996 0 0 0-11.93-10.73z" opacity=".1" p-id="55622"></path><path d="M683.296 128.632c8.49-0.224 16.472 2.952 22.476 8.944l249.654 249.042c5.802 5.77 9.002 13.464 9.022 21.68a30.516 30.516 0 0 1-8.97 21.68 30.474 30.474 0 0 1-20.876 8.996c-8.478 0.222-16.46-2.96-22.476-8.964L662.472 180.984a30.466 30.466 0 0 1-9.002-21.662 30.356 30.356 0 0 1 8.94-21.688 30.546 30.546 0 0 1 20.886-9.002m-0.262-9.998a40.504 40.504 0 0 0-27.696 11.932 40.274 40.274 0 0 0-11.868 28.762c0.006 10.864 4.254 21.056 11.94 28.736l249.654 249.022c7.972 7.954 18.546 12.176 29.802 11.88a40.428 40.428 0 0 0 27.696-11.932 40.452 40.452 0 0 0 11.888-28.762c-0.026-10.864-4.256-21.076-11.96-28.736L712.836 130.496c-7.972-7.954-18.546-12.158-29.802-11.862z" opacity=".2" p-id="55623"></path><path d="M688.678 118.916a40.03 40.03 0 0 1 14.666 4.532 11.996 11.996 0 0 1-4.3 0.93 11.986 11.986 0 0 1-10.366-5.462zM716.204 137.532a11.988 11.988 0 0 1 0.38-3.298l14.626 14.59a11.946 11.946 0 0 1-2.694 0.388 11.998 11.998 0 0 1-12.312-11.68z" opacity=".1" p-id="55624"></path><path d="M673.806 138.648m-12 0a12 12 0 1 0 24 0 12 12 0 1 0-24 0Z" opacity=".1" p-id="55625"></path><path d="M745.752 163.33l10.674 10.648a11.986 11.986 0 0 1-10.674-10.648z" opacity=".1" p-id="55626"></path><path d="M703.28 163.484m-12 0a12 12 0 1 0 24 0 12 12 0 1 0-24 0Z" opacity=".1" p-id="55627"></path><path d="M660.88 164.6a12 12 0 0 1-11.68 12.312 11.992 11.992 0 0 1-1.724-0.092 40.394 40.394 0 0 1-4.006-17.49 40.86 40.86 0 0 1 0.372-5.3 11.996 11.996 0 0 1 17.038 10.57z" opacity=".1" p-id="55628"></path><path d="M732.752 188.322m-12 0a12 12 0 1 0 24 0 12 12 0 1 0-24 0Z" opacity=".1" p-id="55629"></path><path d="M678.358 189.752m-12 0a12 12 0 1 0 24 0 12 12 0 1 0-24 0Z" opacity=".1" p-id="55630"></path><path d="M762.226 213.16m-12 0a12 12 0 1 0 24 0 12 12 0 1 0-24 0Z" opacity=".1" p-id="55631"></path><path d="M707.83 214.59m-12 0a12 12 0 1 0 24 0 12 12 0 1 0-24 0Z" opacity=".1" p-id="55632"></path><path d="M791.698 237.996m-12 0a12 12 0 1 0 24 0 12 12 0 1 0-24 0Z" opacity=".1" p-id="55633"></path><path d="M737.304 239.426m-12 0a12 12 0 1 0 24 0 12 12 0 1 0-24 0Z" opacity=".1" p-id="55634"></path><path d="M821.172 262.834m-12 0a12 12 0 1 0 24 0 12 12 0 1 0-24 0Z" opacity=".1" p-id="55635"></path><path d="M766.778 264.264m-12 0a12 12 0 1 0 24 0 12 12 0 1 0-24 0Z" opacity=".1" p-id="55636"></path><path d="M850.644 287.67m-12 0a12 12 0 1 0 24 0 12 12 0 1 0-24 0Z" opacity=".1" p-id="55637"></path><path d="M796.25 289.1m-12 0a12 12 0 1 0 24 0 12 12 0 1 0-24 0Z" opacity=".1" p-id="55638"></path><path d="M752.39 284.8l-4.826-4.814a12.036 12.036 0 0 1 4.826 4.814zM880.434 324.502a12 12 0 0 1-0.632-23.992c1.428-0.038 2.8 0.19 4.082 0.614l7.622 7.602a12 12 0 0 1-11.072 15.776z" opacity=".1" p-id="55639"></path><path d="M825.724 313.938m-12 0a12 12 0 1 0 24 0 12 12 0 1 0-24 0Z" opacity=".1" p-id="55640"></path><path d="M783.324 315.052c0.006 0.198-0.01 0.394-0.014 0.59l-12.302-12.27h0.004a12 12 0 0 1 12.312 11.68zM909.906 349.34a11.994 11.994 0 1 1-1.66-23.912l13.26 13.228a11.992 11.992 0 0 1-11.6 10.684z" opacity=".1" p-id="55641"></path><path d="M855.196 338.774m-12 0a12 12 0 1 0 24 0 12 12 0 1 0-24 0Z" opacity=".1" p-id="55642"></path><path d="M812.798 339.89a11.914 11.914 0 0 1-0.732 4.434l-15.41-15.372a11.97 11.97 0 0 1 3.832-0.744 12 12 0 0 1 12.31 11.682zM939.38 374.178a12 12 0 0 1-5.256-22.934l15.88 15.84a11.992 11.992 0 0 1-10.624 7.094z" opacity=".1" p-id="55643"></path><path d="M884.67 363.612m-12 0a12 12 0 1 0 24 0 12 12 0 1 0-24 0Z" opacity=".1" p-id="55644"></path><path d="M842.272 364.726a11.95 11.95 0 0 1-2.328 7.406l-16.786-16.742a11.926 11.926 0 0 1 6.802-2.342 12 12 0 0 1 12.312 11.678zM956.542 387.334a11.97 11.97 0 0 1 4.26-9.48l1.688 1.684a40.26 40.26 0 0 1 10.618 18.566 11.932 11.932 0 0 1-4.254 0.91 12 12 0 0 1-12.312-11.68z" opacity=".1" p-id="55645"></path><path d="M914.142 388.448m-12 0a12 12 0 1 0 24 0 12 12 0 1 0-24 0Z" opacity=".1" p-id="55646"></path><path d="M859.432 377.884a12 12 0 0 1 12.312 11.68 11.97 11.97 0 0 1-4.572 9.728l-16.862-16.82a11.97 11.97 0 0 1 9.122-4.588z" opacity=".1" p-id="55647"></path><path d="M943.616 413.286m-12 0a12 12 0 1 0 24 0 12 12 0 1 0-24 0Z" opacity=".1" p-id="55648"></path><path d="M888.906 402.72a11.994 11.994 0 1 1 4.856 23.092l-15.652-15.614a11.994 11.994 0 0 1 10.796-7.478zM970.128 426.502a40.78 40.78 0 0 1-7.566 10.534c-0.47 0.472-0.978 0.894-1.466 1.338a11.99 11.99 0 0 1 9.032-11.872zM918.38 427.558a12 12 0 0 1 12.312 11.68 11.97 11.97 0 0 1-3.886 9.146c-7.456-1.28-14.338-4.65-20.07-9.786a11.996 11.996 0 0 1 11.644-11.04z" opacity=".1" p-id="55649"></path></svg>