<?xml version="1.0" standalone="no"?><!DOCTYPE svg PUBLIC "-//W3C//DTD SVG 1.1//EN" "http://www.w3.org/Graphics/SVG/1.1/DTD/svg11.dtd">
<svg t="1594109455505" class="icon" viewBox="0 0 1024 1024" version="1.1" 
  xmlns="http://www.w3.org/2000/svg" p-id="1620" 
  xmlns:xlink="http://www.w3.org/1999/xlink" width="200" height="200">
  <defs>
    <style type="text/css"></style>
  </defs>
  <path d="M304.44 496.21c-8.95 0-16.21-7.26-16.21-16.21 0-33.33 6.84-65.55 20.33-95.75 3.64-8.18 13.24-11.84 21.41-8.19 8.18 3.65 11.84 13.24 8.19 21.41-11.62 26.02-17.51 53.79-17.51 82.54-0.01 8.95-7.26 16.2-16.21 16.2z" fill="#FFFFFF" p-id="1621"></path>
  <path d="M772.12 303.78c-20.56-20.56-28.4-48.99-23.57-75.58 4.22-23.23-8.09-46.27-29.65-55.91-4.85-2.17-9.74-4.22-14.67-6.17-22.38-8.83-47.77-0.69-61.27 19.23-15.32 22.61-41.17 37.47-70.55 37.47-29.85 0-56.06-15.34-71.28-38.56-13.17-20.09-38.54-28.34-60.99-19.8-4.46 1.7-8.9 3.48-13.3 5.36-22.29 9.51-35.68 33.62-30.16 57.22 6.48 27.75-1.08 58.11-22.72 79.75s-51.99 29.2-79.75 22.72c-23.62-5.52-47.73 7.87-57.29 30.17-1.79 4.18-3.5 8.38-5.13 12.61-8.81 22.89 0.06 48.78 20.89 61.73C276.89 449.06 293 475.9 293 506.5c0 29.86-15.35 56.1-38.58 71.32-20.65 13.53-29.32 39.54-19.97 62.38 1.64 4.01 3.36 7.99 5.15 11.95 10.05 22.21 34.3 35.43 58.07 30.01 27.63-6.3 57.77 1.28 79.29 22.8 20.58 20.58 28.4 49.03 23.53 75.64-4.39 24 8.05 47.95 30.6 57.27 4.82 1.99 9.68 3.88 14.56 5.65 22.1 8.03 46.99 0.16 59.99-19.43 15.26-23 41.35-38.17 71.03-38.17 28.35 0 53.47 13.83 68.98 35.1 13.79 18.91 37.85 27.03 59.55 18.29 5.72-2.31 11.4-4.77 17.03-7.38 20.96-9.73 33.16-32.17 29.19-54.94-4.61-26.44 3.29-54.63 23.71-75.04 19.81-19.81 46.92-27.81 72.66-24.04 23.07 3.38 45.47-9.06 54.75-30.45 2.43-5.6 4.7-11.24 6.83-16.93 8.22-21.94-0.06-45.87-18.86-59.85-20.89-15.54-34.43-40.39-34.43-68.44 0-27.99 13.49-52.81 34.32-68.35 18.74-13.98 26.89-37.92 18.55-59.77-2.13-5.57-4.4-11.1-6.81-16.58-9.48-21.54-32.33-33.86-55.54-29.97-26.26 4.41-54.2-3.52-74.48-23.79z m-90.43 284.86c-56.91 73.32-166.42 73.32-223.33 0-38.77-49.96-38.77-121.61 0-171.57 56.91-73.32 166.42-73.32 223.33 0 38.77 49.96 38.77 121.61 0 171.57z" fill="#EDF1F7" p-id="1622"></path>
  <path d="M463.45 862.1c-7.68 0-15.47-1.33-23.06-4.08-5.1-1.86-10.16-3.82-15.18-5.9-29.28-12.1-45.68-42.65-39.9-74.3 4.14-22.6-3.06-45.75-19.26-61.95-17.07-17.08-41.37-24.07-64.95-18.67-30.52 6.96-62.27-9.32-75.56-38.69-1.87-4.13-3.66-8.28-5.37-12.46-12.03-29.35-1.18-63.47 25.79-81.14 19.79-12.97 31.6-34.81 31.6-58.41 0-24.32-12.35-46.52-33.03-59.38-27.16-16.89-38.58-50.7-27.14-80.38 1.7-4.41 3.47-8.79 5.34-13.15 12.79-29.83 44.33-46.27 74.98-39.1 23.69 5.53 48.13-1.41 65.32-18.6 17.19-17.18 24.14-41.61 18.6-65.32-7.17-30.68 9.28-62.19 39.13-74.92 4.6-1.96 9.22-3.82 13.87-5.59 29-11.03 62.38-0.19 79.39 25.76 12.97 19.78 34.79 31.59 58.38 31.59 23.15 0 44.75-11.48 57.77-30.69 17.75-26.2 50.53-36.45 79.71-24.92 5.14 2.03 10.23 4.17 15.3 6.43 28.18 12.59 44.03 42.51 38.54 72.75-4.1 22.58 3.11 45.72 19.3 61.9 15.94 15.95 38.74 23.24 61.03 19.49 30.18-5.05 59.88 10.95 72.21 38.97 2.52 5.71 4.88 11.47 7.1 17.27 10.65 27.91 1.12 59.11-23.73 77.66-17.88 13.33-28.13 33.74-28.13 55.98 0 22.29 10.28 42.72 28.21 56.05 24.88 18.5 34.56 49.7 24.1 77.64-2.22 5.94-4.6 11.82-7.13 17.66-12 27.68-41.25 43.95-71.14 39.58-22.07-3.22-43.78 3.94-59.51 19.68-16.07 16.07-23.33 39.06-19.42 61.48 5.12 29.41-10.46 58.85-37.9 71.59-5.86 2.72-11.78 5.29-17.76 7.7-27.61 11.12-59.58 1.45-77.79-23.5-13.13-18.01-34.26-28.77-56.51-28.77-23.43 0-45.18 11.69-58.17 31.27-12.48 18.84-33.29 29.47-55.03 29.47zM316.94 664.54c26.36 0 51.79 10.35 70.94 29.51 23.37 23.37 33.76 56.76 27.79 89.33-3.14 17.2 5.62 33.74 21.32 40.22 4.62 1.91 9.27 3.71 13.95 5.42 15.6 5.68 32.84 0.13 41.85-13.46 18.72-28.22 50.08-45.08 83.89-45.08 32.08 0 62.53 15.49 81.45 41.44 10.01 13.73 26.59 18.98 41.31 13.06 5.49-2.21 10.92-4.56 16.3-7.06 14.8-6.87 23.22-22.61 20.49-38.29-5.64-32.31 4.84-65.44 28.01-88.61 22.37-22.37 54.44-32.98 85.81-28.4 16.09 2.37 31.89-6.4 38.35-21.32 2.32-5.36 4.5-10.76 6.54-16.21 5.59-14.93 0.12-31.84-13.61-42.05-25.46-18.93-40.66-49.14-40.66-80.82 0-32.08 14.78-61.5 40.53-80.72 13.67-10.2 19.04-27.04 13.37-41.9-2.04-5.32-4.21-10.62-6.52-15.87-6.62-15.06-22.63-23.67-38.86-20.96-32.1 5.38-64.98-5.12-87.96-28.1-23.35-23.35-33.76-56.71-27.85-89.25 2.95-16.22-5.6-32.28-20.77-39.06-4.65-2.08-9.34-4.05-14.04-5.91-15.63-6.16-33.24-0.6-42.83 13.54-18.77 27.7-49.92 44.24-83.32 44.24-34.03 0-65.5-17.02-84.19-45.53-9.12-13.93-27.06-19.76-42.6-13.83a352.91 352.91 0 0 0-12.74 5.13c-15.77 6.73-24.88 23.72-21.19 39.52 7.99 34.18-2.05 69.39-26.83 94.17-24.77 24.78-59.97 34.8-94.17 26.83-15.77-3.72-32.83 5.42-39.6 21.22-1.72 4-3.35 8.03-4.9 12.07-6.12 15.88 0.04 34 14.64 43.08 29.8 18.53 47.6 50.52 47.6 85.59 0 34.05-17.03 65.54-45.55 84.23-14.63 9.58-20.58 27.93-14.15 43.62 1.57 3.84 3.22 7.64 4.94 11.43 7.26 16.06 24.33 25.01 40.58 21.33 7.54-1.7 15.15-2.55 22.68-2.55z m253.09-5.48c-48.64 0-93.79-22.22-123.86-60.96-42.83-55.19-42.83-135.3 0-190.48 30.07-38.74 75.21-60.96 123.85-60.96s93.79 22.22 123.86 60.95c42.83 55.19 42.83 135.3 0 190.49-30.07 38.74-75.22 60.96-123.85 60.96z m0-281.55c-39.04 0-75.3 17.87-99.48 49.02-34.32 44.22-34.32 108.42 0 152.65 24.18 31.15 60.43 49.02 99.48 49.02 39.04 0 75.29-17.87 99.47-49.02 34.33-44.23 34.33-108.42 0-152.65-24.18-31.15-60.44-49.02-99.47-49.02z m111.66 211.13h0.08-0.08z" fill="#5E125C" p-id="1623"></path>
  <path d="M475.05 664.13c0-4.75-0.29-9.42-0.71-14.06-0.12-1.28-0.26-2.55-0.41-3.81-0.44-3.76-1-7.47-1.7-11.14-0.17-0.91-0.3-1.83-0.49-2.73-0.92-4.36-2.03-8.65-3.31-12.87-0.51-1.69-1.14-3.33-1.7-5-0.97-2.86-1.97-5.7-3.1-8.48-0.72-1.77-1.53-3.5-2.31-5.24-1.17-2.59-2.38-5.15-3.69-7.66-0.9-1.73-1.85-3.43-2.81-5.12-1.38-2.42-2.83-4.81-4.34-7.15-1.05-1.63-2.11-3.25-3.22-4.83-1.33-1.9-2.75-3.73-4.16-5.56-1.98-2.58-4.03-5.1-6.17-7.54-1.41-1.61-2.84-3.2-4.31-4.75-2.26-2.38-4.62-4.66-7.02-6.89-1.52-1.41-3.02-2.83-4.59-4.17-2.67-2.28-5.46-4.41-8.29-6.51-1.46-1.09-2.88-2.24-4.38-3.28-3.86-2.66-7.86-5.12-11.96-7.42-0.58-0.33-1.12-0.72-1.71-1.04-0.2-0.11-0.41-0.2-0.61-0.31-3.73-2.01-7.57-3.82-11.47-5.53-0.87-0.38-1.73-0.76-2.6-1.13-4.02-1.66-8.12-3.18-12.31-4.5-0.74-0.24-1.5-0.43-2.25-0.66-3.86-1.16-7.78-2.17-11.75-3.02-0.71-0.15-1.4-0.33-2.11-0.48-4.37-0.88-8.82-1.54-13.31-2.03-1-0.11-2-0.2-3-0.29-4.64-0.42-9.31-0.71-14.06-0.71-9.77 0-19.3 1.01-28.57 2.75-2.06 27.13-16.64 50.73-38.16 64.83-20.65 13.53-29.32 39.54-19.97 62.38 1.64 4.01 3.36 7.99 5.15 11.95 10.05 22.21 34.3 35.43 58.07 30.01 27.63-6.3 57.77 1.28 79.29 22.8 20.58 20.58 28.4 49.03 23.53 75.64-0.96 5.22-0.98 10.41-0.41 15.47 44.81-26.88 74.92-75.82 74.92-131.92z" fill="#EDF1F7" p-id="1624"></path>
  <path d="M259.44 662.9m-153.9 0a153.9 153.9 0 1 0 307.8 0 153.9 153.9 0 1 0-307.8 0Z" fill="#ABCF79" p-id="1625"></path>
  <path d="M259.2 832.35c-46.81 0-92.59-19.48-125.51-55.98-5.7-6.33-5.21-16.08 1.12-21.79 6.34-5.7 16.09-5.2 21.8 1.13 40.42 44.81 104.59 58.25 159.68 33.46 33.72-15.19 59.51-42.59 72.62-77.18 13.11-34.58 11.96-72.2-3.22-105.93-5.44-12.08-12.52-23.27-21.06-33.25a137.593 137.593 0 0 0-36.67-30.23c-17.7-10.06-37.76-16.2-58.02-17.77-22.93-1.75-46.23 2.33-67.37 11.84-50.47 22.72-82.51 73.17-81.64 128.52 0.14 8.52-6.67 15.54-15.19 15.67-8.36 0.47-15.54-6.66-15.67-15.18-1.07-67.68 38.12-129.37 99.82-157.15 25.84-11.63 54.33-16.62 82.4-14.47 24.76 1.91 49.28 9.41 70.9 21.71 17.05 9.69 32.15 22.14 44.87 36.99a169.597 169.597 0 0 1 25.75 40.64c18.56 41.24 19.97 87.24 3.93 129.54-16.03 42.29-47.57 75.81-88.81 94.38-22.48 10.14-46.24 15.05-69.73 15.05z" fill="#5E125C" p-id="1626"></path>
  <path d="M242.63 714.84c-3.95 0-7.9-1.51-10.91-4.52l-33.75-33.75c-6.03-6.02-6.03-15.8 0-21.82 6.03-6.03 15.79-6.03 21.82 0l22.84 22.84 71.07-71.06c6.03-6.03 15.79-6.03 21.82 0 6.03 6.02 6.03 15.8 0 21.82l-81.98 81.98c-3.01 3-6.96 4.51-10.91 4.51z" fill="#5E125C" p-id="1627"></path>
</svg>